<svg xmlns="http://www.w3.org/2000/svg" width="760" height="420" font-family="ui-sans-serif,system-ui,sans-serif">
<rect width="760" height="420" fill="#0b0f17"/>
<text x="78" y="34" fill="#e6edf3" font-size="20" font-weight="700">Filesystem footprint vs workspace size</text>
<text x="78" y="54" fill="#7d8590" font-size="13">node_modules entries (inodes) and lockfile lines</text>
<line x1="78" y1="350" x2="736" y2="350" stroke="#30363d"/>
<line x1="78" y1="70" x2="78" y2="350" stroke="#30363d"/><text x="104.32" y="372" fill="#9da7b3" font-size="12" text-anchor="middle">200</text><text x="209.6" y="372" fill="#9da7b3" font-size="12" text-anchor="middle">1,000</text><text x="341.2" y="372" fill="#9da7b3" font-size="12" text-anchor="middle">2,000</text><text x="736" y="372" fill="#9da7b3" font-size="12" text-anchor="middle">5,000</text><polyline points="104.32,333.227313924674 209.6,331.61370935209584 341.2,331.61370935209584 736,331.61370935209584" fill="none" stroke="#a855f7" stroke-width="2.5"/><circle cx="104.32" cy="333.227313924674" r="4" fill="#a855f7"/><text x="104.32" y="323.227313924674" fill="#e6edf3" font-size="11" text-anchor="middle">11,434</text><circle cx="209.6" cy="331.61370935209584" r="4" fill="#a855f7"/><text x="209.6" y="321.61370935209584" fill="#e6edf3" font-size="11" text-anchor="middle">12,534</text><circle cx="341.2" cy="331.61370935209584" r="4" fill="#a855f7"/><text x="341.2" y="321.61370935209584" fill="#e6edf3" font-size="11" text-anchor="middle">12,534</text><circle cx="736" cy="331.61370935209584" r="4" fill="#a855f7"/><text x="736" y="321.61370935209584" fill="#e6edf3" font-size="11" text-anchor="middle">12,534</text><polyline points="104.32,335.6139817788419 209.6,289.6555897253205 341.2,232.82737050561357 736,70" fill="none" stroke="#06b6d4" stroke-width="2.5"/><circle cx="104.32" cy="335.6139817788419" r="4" fill="#06b6d4"/><text x="104.32" y="325.6139817788419" fill="#e6edf3" font-size="11" text-anchor="middle">9,807</text><circle cx="209.6" cy="289.6555897253205" r="4" fill="#06b6d4"/><text x="209.6" y="279.6555897253205" fill="#e6edf3" font-size="11" text-anchor="middle">41,137</text><circle cx="341.2" cy="232.82737050561357" r="4" fill="#06b6d4"/><text x="341.2" y="222.82737050561357" fill="#e6edf3" font-size="11" text-anchor="middle">79,877</text><circle cx="736" cy="70" r="4" fill="#06b6d4"/><text x="736" y="60" fill="#e6edf3" font-size="11" text-anchor="middle">190,877</text><rect x="576" y="66" width="12" height="12" fill="#a855f7"/><text x="594" y="76" fill="#c9d1d9" font-size="12">node_modules entries</text><rect x="576" y="86" width="12" height="12" fill="#06b6d4"/><text x="594" y="96" fill="#c9d1d9" font-size="12">lockfile lines</text></svg>