<svg xmlns="http://www.w3.org/2000/svg" width="1156" height="1799" viewBox="0 0 1156 1799" font-family="-apple-system,BlinkMacSystemFont,Segoe UI,Helvetica,Arial,sans-serif">
<rect width="1156" height="1799" fill="#ffffff"/>
<text x="28" y="40" font-size="22" font-weight="700" fill="#1f2328">Tooling head-to-head — wall time</text>
<text x="28" y="62" font-size="13" fill="#57606a">Each section compares like-for-like tools (or, last, one tool's situations). Fastest cell green; others show how many times slower.</text>
<text x="28" y="80" font-size="13" fill="#57606a">Machine: 64-core host. Every number traces to the cited bench JSON.</text>
<text x="28" y="108" font-size="16" font-weight="700" fill="#1f2328">Install the workspace — bun vs pnpm vs yarn</text>
<rect x="28" y="126" width="290" height="50" fill="#f6f8fa" stroke="#d0d7de"/>
<text x="40" y="156" font-size="12" font-weight="600" fill="#57606a">scenario</text>
<rect x="318" y="126" width="162" height="50" fill="#f6f8fa" stroke="#d0d7de"/>
<text x="399" y="156" font-size="14" font-weight="700" fill="#1f2328" text-anchor="middle">bun</text>
<rect x="480" y="126" width="162" height="50" fill="#f6f8fa" stroke="#d0d7de"/>
<text x="561" y="148" font-size="14" font-weight="700" fill="#1f2328" text-anchor="middle">pnpm</text>
<text x="561" y="164" font-size="14" font-weight="700" fill="#1f2328" text-anchor="middle">isolated</text>
<rect x="642" y="126" width="162" height="50" fill="#f6f8fa" stroke="#d0d7de"/>
<text x="723" y="148" font-size="14" font-weight="700" fill="#1f2328" text-anchor="middle">pnpm</text>
<text x="723" y="164" font-size="14" font-weight="700" fill="#1f2328" text-anchor="middle">hoisted</text>
<rect x="804" y="126" width="162" height="50" fill="#f6f8fa" stroke="#d0d7de"/>
<text x="885" y="148" font-size="14" font-weight="700" fill="#1f2328" text-anchor="middle">yarn</text>
<text x="885" y="164" font-size="14" font-weight="700" fill="#1f2328" text-anchor="middle">node-modules</text>
<rect x="966" y="126" width="162" height="50" fill="#f6f8fa" stroke="#d0d7de"/>
<text x="1047" y="148" font-size="14" font-weight="700" fill="#1f2328" text-anchor="middle">yarn</text>
<text x="1047" y="164" font-size="14" font-weight="700" fill="#1f2328" text-anchor="middle">PnP</text>
<rect x="28" y="176" width="290" height="56" fill="#ffffff" stroke="#d0d7de"/>
<text x="40" y="209" font-size="14" fill="#1f2328">Cold · 200 apps</text>
<rect x="318" y="176" width="162" height="56" fill="rgb(26,127,55)" stroke="#ffffff"/>
<text x="399" y="200" font-size="16" font-weight="700" fill="#ffffff" text-anchor="middle">0.13s</text>
<text x="399" y="219" font-size="11" fill="#ffffff" text-anchor="middle">fastest</text>
<rect x="480" y="176" width="162" height="56" fill="rgb(176,42,42)" stroke="#ffffff"/>
<text x="561" y="200" font-size="16" font-weight="700" fill="#ffffff" text-anchor="middle">47.8s</text>
<text x="561" y="219" font-size="11" fill="#ffffff" text-anchor="middle">×357 slower</text>
<rect x="642" y="176" width="162" height="56" fill="rgb(176,42,42)" stroke="#ffffff"/>
<text x="723" y="200" font-size="16" font-weight="700" fill="#ffffff" text-anchor="middle">46.7s</text>
<text x="723" y="219" font-size="11" fill="#ffffff" text-anchor="middle">×349 slower</text>
<rect x="804" y="176" width="162" height="56" fill="rgb(190,77,33)" stroke="#ffffff"/>
<text x="885" y="200" font-size="16" font-weight="700" fill="#ffffff" text-anchor="middle">3.2s</text>
<text x="885" y="219" font-size="11" fill="#ffffff" text-anchor="middle">×24 slower</text>
<rect x="966" y="176" width="162" height="56" fill="rgb(196,93,29)" stroke="#ffffff"/>
<text x="1047" y="200" font-size="16" font-weight="700" fill="#0a0d12" text-anchor="middle">1.7s</text>
<text x="1047" y="219" font-size="11" fill="#0a0d12" text-anchor="middle">×12 slower</text>
<rect x="28" y="232" width="290" height="56" fill="#ffffff" stroke="#d0d7de"/>
<text x="40" y="265" font-size="14" fill="#1f2328">Cold · 1,000 apps</text>
<rect x="318" y="232" width="162" height="56" fill="rgb(26,127,55)" stroke="#ffffff"/>
<text x="399" y="256" font-size="16" font-weight="700" fill="#ffffff" text-anchor="middle">2.2s</text>
<text x="399" y="275" font-size="11" fill="#ffffff" text-anchor="middle">fastest</text>
<rect x="480" y="232" width="162" height="56" fill="rgb(176,42,42)" stroke="#ffffff"/>
<text x="561" y="256" font-size="16" font-weight="700" fill="#ffffff" text-anchor="middle">229.5s</text>
<text x="561" y="275" font-size="11" fill="#ffffff" text-anchor="middle">×103 slower</text>
<rect x="642" y="232" width="162" height="56" fill="rgb(176,42,42)" stroke="#ffffff"/>
<text x="723" y="256" font-size="16" font-weight="700" fill="#ffffff" text-anchor="middle">227.3s</text>
<text x="723" y="275" font-size="11" fill="#ffffff" text-anchor="middle">×102 slower</text>
<rect x="804" y="232" width="162" height="56" fill="rgb(209,167,29)" stroke="#ffffff"/>
<text x="885" y="256" font-size="16" font-weight="700" fill="#0a0d12" text-anchor="middle">4.4s</text>
<text x="885" y="275" font-size="11" fill="#0a0d12" text-anchor="middle">×2.0 slower</text>
<rect x="966" y="232" width="162" height="56" fill="rgb(36,129,54)" stroke="#ffffff"/>
<text x="1047" y="256" font-size="16" font-weight="700" fill="#ffffff" text-anchor="middle">2.3s</text>
<text x="1047" y="275" font-size="11" fill="#ffffff" text-anchor="middle">×1.0 slower</text>
<rect x="28" y="288" width="290" height="56" fill="#ffffff" stroke="#d0d7de"/>
<text x="40" y="321" font-size="14" fill="#1f2328">Cold · 2,000 apps</text>
<rect x="318" y="288" width="162" height="56" fill="rgb(212,161,28)" stroke="#ffffff"/>
<text x="399" y="312" font-size="16" font-weight="700" fill="#0a0d12" text-anchor="middle">7.5s</text>
<text x="399" y="331" font-size="11" fill="#0a0d12" text-anchor="middle">×2.4 slower</text>
<rect x="480" y="288" width="162" height="56" fill="rgb(176,42,42)" stroke="#ffffff"/>
<text x="561" y="312" font-size="16" font-weight="700" fill="#ffffff" text-anchor="middle">471.2s</text>
<text x="561" y="331" font-size="11" fill="#ffffff" text-anchor="middle">×148 slower</text>
<rect x="642" y="288" width="162" height="56" fill="rgb(176,42,42)" stroke="#ffffff"/>
<text x="723" y="312" font-size="16" font-weight="700" fill="#ffffff" text-anchor="middle">456.7s</text>
<text x="723" y="331" font-size="11" fill="#ffffff" text-anchor="middle">×144 slower</text>
<rect x="804" y="288" width="162" height="56" fill="rgb(208,167,29)" stroke="#ffffff"/>
<text x="885" y="312" font-size="16" font-weight="700" fill="#0a0d12" text-anchor="middle">6.2s</text>
<text x="885" y="331" font-size="11" fill="#0a0d12" text-anchor="middle">×2.0 slower</text>
<rect x="966" y="288" width="162" height="56" fill="rgb(26,127,55)" stroke="#ffffff"/>
<text x="1047" y="312" font-size="16" font-weight="700" fill="#ffffff" text-anchor="middle">3.2s</text>
<text x="1047" y="331" font-size="11" fill="#ffffff" text-anchor="middle">fastest</text>
<rect x="28" y="344" width="290" height="56" fill="#ffffff" stroke="#d0d7de"/>
<text x="40" y="377" font-size="14" fill="#1f2328">Warm · 200 apps</text>
<rect x="318" y="344" width="162" height="56" fill="rgb(26,127,55)" stroke="#ffffff"/>
<text x="399" y="368" font-size="16" font-weight="700" fill="#ffffff" text-anchor="middle">0.12s</text>
<text x="399" y="387" font-size="11" fill="#ffffff" text-anchor="middle">fastest</text>
<rect x="480" y="344" width="162" height="56" fill="rgb(192,83,32)" stroke="#ffffff"/>
<text x="561" y="368" font-size="16" font-weight="700" fill="#ffffff" text-anchor="middle">2.3s</text>
<text x="561" y="387" font-size="11" fill="#ffffff" text-anchor="middle">×19 slower</text>
<rect x="642" y="344" width="162" height="56" fill="rgb(197,95,29)" stroke="#ffffff"/>
<text x="723" y="368" font-size="16" font-weight="700" fill="#0a0d12" text-anchor="middle">1.4s</text>
<text x="723" y="387" font-size="11" fill="#0a0d12" text-anchor="middle">×11 slower</text>
<rect x="804" y="344" width="162" height="56" fill="rgb(190,78,33)" stroke="#ffffff"/>
<text x="885" y="368" font-size="16" font-weight="700" fill="#ffffff" text-anchor="middle">2.8s</text>
<text x="885" y="387" font-size="11" fill="#ffffff" text-anchor="middle">×23 slower</text>
<rect x="966" y="344" width="162" height="56" fill="rgb(197,96,28)" stroke="#ffffff"/>
<text x="1047" y="368" font-size="16" font-weight="700" fill="#0a0d12" text-anchor="middle">1.3s</text>
<text x="1047" y="387" font-size="11" fill="#0a0d12" text-anchor="middle">×11 slower</text>
<rect x="28" y="400" width="290" height="56" fill="#ffffff" stroke="#d0d7de"/>
<text x="40" y="433" font-size="14" fill="#1f2328">Warm · 1,000 apps</text>
<rect x="318" y="400" width="162" height="56" fill="rgb(85,140,47)" stroke="#ffffff"/>
<text x="399" y="424" font-size="16" font-weight="700" fill="#0a0d12" text-anchor="middle">2.6s</text>
<text x="399" y="443" font-size="11" fill="#0a0d12" text-anchor="middle">×1.2 slower</text>
<rect x="480" y="400" width="162" height="56" fill="rgb(208,143,28)" stroke="#ffffff"/>
<text x="561" y="424" font-size="16" font-weight="700" fill="#0a0d12" text-anchor="middle">7.3s</text>
<text x="561" y="443" font-size="11" fill="#0a0d12" text-anchor="middle">×3.5 slower</text>
<rect x="642" y="400" width="162" height="56" fill="rgb(123,148,41)" stroke="#ffffff"/>
<text x="723" y="424" font-size="16" font-weight="700" fill="#0a0d12" text-anchor="middle">3.0s</text>
<text x="723" y="443" font-size="11" fill="#0a0d12" text-anchor="middle">×1.4 slower</text>
<rect x="804" y="400" width="162" height="56" fill="rgb(207,166,29)" stroke="#ffffff"/>
<text x="885" y="424" font-size="16" font-weight="700" fill="#0a0d12" text-anchor="middle">4.0s</text>
<text x="885" y="443" font-size="11" fill="#0a0d12" text-anchor="middle">×1.9 slower</text>
<rect x="966" y="400" width="162" height="56" fill="rgb(26,127,55)" stroke="#ffffff"/>
<text x="1047" y="424" font-size="16" font-weight="700" fill="#ffffff" text-anchor="middle">2.1s</text>
<text x="1047" y="443" font-size="11" fill="#ffffff" text-anchor="middle">fastest</text>
<rect x="28" y="456" width="290" height="56" fill="#ffffff" stroke="#d0d7de"/>
<text x="40" y="489" font-size="14" fill="#1f2328">Warm · 2,000 apps</text>
<rect x="318" y="456" width="162" height="56" fill="rgb(209,147,28)" stroke="#ffffff"/>
<text x="399" y="480" font-size="16" font-weight="700" fill="#0a0d12" text-anchor="middle">9.5s</text>
<text x="399" y="499" font-size="11" fill="#0a0d12" text-anchor="middle">×3.2 slower</text>
<rect x="480" y="456" width="162" height="56" fill="rgb(205,126,28)" stroke="#ffffff"/>
<text x="561" y="480" font-size="16" font-weight="700" fill="#0a0d12" text-anchor="middle">15.2s</text>
<text x="561" y="499" font-size="11" fill="#0a0d12" text-anchor="middle">×5.2 slower</text>
<rect x="642" y="456" width="162" height="56" fill="rgb(153,155,37)" stroke="#ffffff"/>
<text x="723" y="480" font-size="16" font-weight="700" fill="#0a0d12" text-anchor="middle">4.7s</text>
<text x="723" y="499" font-size="11" fill="#0a0d12" text-anchor="middle">×1.6 slower</text>
<rect x="804" y="456" width="162" height="56" fill="rgb(214,168,28)" stroke="#ffffff"/>
<text x="885" y="480" font-size="16" font-weight="700" fill="#0a0d12" text-anchor="middle">5.9s</text>
<text x="885" y="499" font-size="11" fill="#0a0d12" text-anchor="middle">×2.0 slower</text>
<rect x="966" y="456" width="162" height="56" fill="rgb(26,127,55)" stroke="#ffffff"/>
<text x="1047" y="480" font-size="16" font-weight="700" fill="#ffffff" text-anchor="middle">2.9s</text>
<text x="1047" y="499" font-size="11" fill="#ffffff" text-anchor="middle">fastest</text>
<rect x="28" y="512" width="290" height="56" fill="#ffffff" stroke="#d0d7de"/>
<text x="40" y="545" font-size="14" fill="#1f2328">Cold store + no lockfile · 200 apps</text>
<rect x="318" y="512" width="162" height="56" fill="rgb(26,127,55)" stroke="#ffffff"/>
<text x="399" y="536" font-size="16" font-weight="700" fill="#ffffff" text-anchor="middle">1.2s</text>
<text x="399" y="555" font-size="11" fill="#ffffff" text-anchor="middle">fastest</text>
<rect x="480" y="512" width="162" height="56" fill="#f6f8fa" stroke="#d0d7de"/>
<text x="561" y="545" font-size="15" fill="#8c959f" text-anchor="middle">—</text>
<rect x="642" y="512" width="162" height="56" fill="rgb(191,81,32)" stroke="#ffffff"/>
<text x="723" y="536" font-size="16" font-weight="700" fill="#ffffff" text-anchor="middle">24.0s</text>
<text x="723" y="555" font-size="11" fill="#ffffff" text-anchor="middle">×20 slower</text>
<rect x="804" y="512" width="162" height="56" fill="rgb(200,109,28)" stroke="#ffffff"/>
<text x="885" y="536" font-size="16" font-weight="700" fill="#0a0d12" text-anchor="middle">9.3s</text>
<text x="885" y="555" font-size="11" fill="#0a0d12" text-anchor="middle">×7.8 slower</text>
<rect x="966" y="512" width="162" height="56" fill="rgb(202,117,28)" stroke="#ffffff"/>
<text x="1047" y="536" font-size="16" font-weight="700" fill="#0a0d12" text-anchor="middle">7.7s</text>
<text x="1047" y="555" font-size="11" fill="#0a0d12" text-anchor="middle">×6.5 slower</text>
<text x="28" y="584" font-size="11" fill="#57606a">Source: bench/install-bench.json</text>
<text x="28" y="599" font-size="11" fill="#57606a">Cold = no committed lockfile (full resolve); warm = lockfile present, relink only; both warm-store. yarn PnP writes no node_modules (a .pnp.cjs table over cache zips). Cold store + no lockfile =</text>
<text x="28" y="614" font-size="11" fill="#57606a">each tool's store and metadata redirected to a fresh dir, real network — single samples, not directly comparable to the warm-store rows. “—” = not measured (pnpm-isolated cold is within ~3% of</text>
<text x="28" y="629" font-size="11" fill="#57606a">hoisted).</text>
<text x="28" y="659" font-size="16" font-weight="700" fill="#1f2328">Typecheck — tsc vs tsgo</text>
<rect x="28" y="677" width="290" height="50" fill="#f6f8fa" stroke="#d0d7de"/>
<text x="40" y="707" font-size="12" font-weight="600" fill="#57606a">scenario</text>
<rect x="318" y="677" width="162" height="50" fill="#f6f8fa" stroke="#d0d7de"/>
<text x="399" y="707" font-size="14" font-weight="700" fill="#1f2328" text-anchor="middle">tsc</text>
<rect x="480" y="677" width="162" height="50" fill="#f6f8fa" stroke="#d0d7de"/>
<text x="561" y="707" font-size="14" font-weight="700" fill="#1f2328" text-anchor="middle">tsgo</text>
<rect x="28" y="727" width="290" height="56" fill="#ffffff" stroke="#d0d7de"/>
<text x="40" y="760" font-size="14" fill="#1f2328">3,000-module program</text>
<rect x="318" y="727" width="162" height="56" fill="rgb(196,93,29)" stroke="#ffffff"/>
<text x="399" y="751" font-size="16" font-weight="700" fill="#0a0d12" text-anchor="middle">3.1s</text>
<text x="399" y="770" font-size="11" fill="#0a0d12" text-anchor="middle">×12 slower</text>
<rect x="480" y="727" width="162" height="56" fill="rgb(26,127,55)" stroke="#ffffff"/>
<text x="561" y="751" font-size="16" font-weight="700" fill="#ffffff" text-anchor="middle">0.26s</text>
<text x="561" y="770" font-size="11" fill="#ffffff" text-anchor="middle">fastest</text>
<rect x="28" y="783" width="290" height="56" fill="#ffffff" stroke="#d0d7de"/>
<text x="40" y="816" font-size="14" fill="#1f2328">4,000:400 type-heavy whole-program</text>
<rect x="318" y="783" width="162" height="56" fill="rgb(199,104,28)" stroke="#ffffff"/>
<text x="399" y="807" font-size="16" font-weight="700" fill="#0a0d12" text-anchor="middle">17.2s</text>
<text x="399" y="826" font-size="11" fill="#0a0d12" text-anchor="middle">×8.8 slower</text>
<rect x="480" y="783" width="162" height="56" fill="rgb(26,127,55)" stroke="#ffffff"/>
<text x="561" y="807" font-size="16" font-weight="700" fill="#ffffff" text-anchor="middle">2.0s</text>
<text x="561" y="826" font-size="11" fill="#ffffff" text-anchor="middle">fastest</text>
<text x="28" y="855" font-size="11" fill="#57606a">Source: bench/typecheck-bench.json, bench/typecheck-parity-bench.json</text>
<text x="28" y="885" font-size="16" font-weight="700" fill="#1f2328">Production build — Next vs Vite</text>
<rect x="28" y="903" width="290" height="50" fill="#f6f8fa" stroke="#d0d7de"/>
<text x="40" y="933" font-size="12" font-weight="600" fill="#57606a">scenario</text>
<rect x="318" y="903" width="162" height="50" fill="#f6f8fa" stroke="#d0d7de"/>
<text x="399" y="933" font-size="14" font-weight="700" fill="#1f2328" text-anchor="middle">Next</text>
<rect x="480" y="903" width="162" height="50" fill="#f6f8fa" stroke="#d0d7de"/>
<text x="561" y="933" font-size="14" font-weight="700" fill="#1f2328" text-anchor="middle">Vite</text>
<rect x="28" y="953" width="290" height="56" fill="#ffffff" stroke="#d0d7de"/>
<text x="40" y="986" font-size="14" fill="#1f2328">40 apps / 24 libs</text>
<rect x="318" y="953" width="162" height="56" fill="rgb(213,162,28)" stroke="#ffffff"/>
<text x="399" y="977" font-size="16" font-weight="700" fill="#0a0d12" text-anchor="middle">17.2s</text>
<text x="399" y="996" font-size="11" fill="#0a0d12" text-anchor="middle">×2.3 slower</text>
<rect x="480" y="953" width="162" height="56" fill="rgb(26,127,55)" stroke="#ffffff"/>
<text x="561" y="977" font-size="16" font-weight="700" fill="#ffffff" text-anchor="middle">7.6s</text>
<text x="561" y="996" font-size="11" fill="#ffffff" text-anchor="middle">fastest</text>
<text x="28" y="1025" font-size="11" fill="#57606a">Source: bench/build-bench.json</text>
<text x="28" y="1040" font-size="11" fill="#57606a">Different feature sets: Next App Router vs Vite SPA.</text>
<text x="28" y="1070" font-size="16" font-weight="700" fill="#1f2328">pnpm install situations — 1,000 apps</text>
<rect x="28" y="1088" width="290" height="50" fill="#f6f8fa" stroke="#d0d7de"/>
<text x="40" y="1118" font-size="12" font-weight="600" fill="#57606a">scenario</text>
<rect x="318" y="1088" width="162" height="50" fill="#f6f8fa" stroke="#d0d7de"/>
<text x="399" y="1118" font-size="14" font-weight="700" fill="#1f2328" text-anchor="middle">pnpm</text>
<rect x="28" y="1138" width="290" height="56" fill="#ffffff" stroke="#d0d7de"/>
<text x="40" y="1171" font-size="14" fill="#1f2328">frozen install (warm store)</text>
<rect x="318" y="1138" width="162" height="56" fill="rgb(26,127,55)" stroke="#ffffff"/>
<text x="399" y="1162" font-size="16" font-weight="700" fill="#ffffff" text-anchor="middle">7.4s</text>
<text x="399" y="1181" font-size="11" fill="#ffffff" text-anchor="middle">fastest</text>
<rect x="28" y="1194" width="290" height="56" fill="#ffffff" stroke="#d0d7de"/>
<text x="40" y="1227" font-size="14" fill="#1f2328">frozen install (cold store)</text>
<rect x="318" y="1194" width="162" height="56" fill="rgb(83,139,47)" stroke="#ffffff"/>
<text x="399" y="1218" font-size="16" font-weight="700" fill="#0a0d12" text-anchor="middle">9.2s</text>
<text x="399" y="1237" font-size="11" fill="#0a0d12" text-anchor="middle">×1.2 slower</text>
<rect x="28" y="1250" width="290" height="56" fill="#ffffff" stroke="#d0d7de"/>
<text x="40" y="1283" font-size="14" fill="#1f2328">add one dependency</text>
<rect x="318" y="1250" width="162" height="56" fill="rgb(93,142,45)" stroke="#ffffff"/>
<text x="399" y="1274" font-size="16" font-weight="700" fill="#0a0d12" text-anchor="middle">9.5s</text>
<text x="399" y="1293" font-size="11" fill="#0a0d12" text-anchor="middle">×1.3 slower</text>
<rect x="28" y="1306" width="290" height="56" fill="#ffffff" stroke="#d0d7de"/>
<text x="40" y="1339" font-size="14" fill="#1f2328">catalog bump (shared dep)</text>
<rect x="318" y="1306" width="162" height="56" fill="rgb(202,114,28)" stroke="#ffffff"/>
<text x="399" y="1330" font-size="16" font-weight="700" fill="#0a0d12" text-anchor="middle">51.3s</text>
<text x="399" y="1349" font-size="11" fill="#0a0d12" text-anchor="middle">×6.9 slower</text>
<rect x="28" y="1362" width="290" height="56" fill="#ffffff" stroke="#d0d7de"/>
<text x="40" y="1395" font-size="14" fill="#1f2328">cold resolve (no lockfile)</text>
<rect x="318" y="1362" width="162" height="56" fill="rgb(187,70,35)" stroke="#ffffff"/>
<text x="399" y="1386" font-size="16" font-weight="700" fill="#ffffff" text-anchor="middle">233.4s</text>
<text x="399" y="1405" font-size="11" fill="#ffffff" text-anchor="middle">×31 slower</text>
<text x="28" y="1434" font-size="11" fill="#57606a">Source: bench/install-modes-bench.json</text>
<text x="28" y="1449" font-size="11" fill="#57606a">One tool, many situations: cheapest in green, others relative to it.</text>
<text x="28" y="1479" font-size="16" font-weight="700" fill="#1f2328">Lint — ESLint vs oxlint (800 files)</text>
<rect x="28" y="1497" width="290" height="50" fill="#f6f8fa" stroke="#d0d7de"/>
<text x="40" y="1527" font-size="12" font-weight="600" fill="#57606a">scenario</text>
<rect x="318" y="1497" width="162" height="50" fill="#f6f8fa" stroke="#d0d7de"/>
<text x="399" y="1527" font-size="14" font-weight="700" fill="#1f2328" text-anchor="middle">ESLint</text>
<rect x="480" y="1497" width="162" height="50" fill="#f6f8fa" stroke="#d0d7de"/>
<text x="561" y="1527" font-size="14" font-weight="700" fill="#1f2328" text-anchor="middle">oxlint</text>
<rect x="28" y="1547" width="290" height="56" fill="#ffffff" stroke="#d0d7de"/>
<text x="40" y="1580" font-size="14" fill="#1f2328">syntactic (524 vs 567 rules)</text>
<rect x="318" y="1547" width="162" height="56" fill="rgb(180,53,39)" stroke="#ffffff"/>
<text x="399" y="1571" font-size="16" font-weight="700" fill="#ffffff" text-anchor="middle">12.0s</text>
<text x="399" y="1590" font-size="11" fill="#ffffff" text-anchor="middle">×63 slower</text>
<rect x="480" y="1547" width="162" height="56" fill="rgb(26,127,55)" stroke="#ffffff"/>
<text x="561" y="1571" font-size="16" font-weight="700" fill="#ffffff" text-anchor="middle">0.19s</text>
<text x="561" y="1590" font-size="11" fill="#ffffff" text-anchor="middle">fastest</text>
<rect x="28" y="1603" width="290" height="56" fill="#ffffff" stroke="#d0d7de"/>
<text x="40" y="1636" font-size="14" fill="#1f2328">syntactic, ESLint --cache</text>
<rect x="318" y="1603" width="162" height="56" fill="rgb(198,98,28)" stroke="#ffffff"/>
<text x="399" y="1627" font-size="16" font-weight="700" fill="#0a0d12" text-anchor="middle">1.9s</text>
<text x="399" y="1646" font-size="11" fill="#0a0d12" text-anchor="middle">×10 slower</text>
<rect x="480" y="1603" width="162" height="56" fill="rgb(26,127,55)" stroke="#ffffff"/>
<text x="561" y="1627" font-size="16" font-weight="700" fill="#ffffff" text-anchor="middle">0.19s</text>
<text x="561" y="1646" font-size="11" fill="#ffffff" text-anchor="middle">fastest</text>
<rect x="28" y="1659" width="290" height="56" fill="#ffffff" stroke="#d0d7de"/>
<text x="40" y="1692" font-size="14" fill="#1f2328">type-aware</text>
<rect x="318" y="1659" width="162" height="56" fill="rgb(197,95,29)" stroke="#ffffff"/>
<text x="399" y="1683" font-size="16" font-weight="700" fill="#0a0d12" text-anchor="middle">4.5s</text>
<text x="399" y="1702" font-size="11" fill="#0a0d12" text-anchor="middle">×11 slower</text>
<rect x="480" y="1659" width="162" height="56" fill="rgb(26,127,55)" stroke="#ffffff"/>
<text x="561" y="1683" font-size="16" font-weight="700" fill="#ffffff" text-anchor="middle">0.40s</text>
<text x="561" y="1702" font-size="11" fill="#ffffff" text-anchor="middle">fastest</text>
<text x="28" y="1731" font-size="11" fill="#57606a">Source: bench/lint-bench.json</text>
<text x="28" y="1746" font-size="11" fill="#57606a">ESLint runs a strict subset of oxlint's covered rules (no more work) — conservative. Wall-clock on a 64-core box: oxlint is multithreaded, so the ratio scales with cores. The type-aware row is</text>
<text x="28" y="1761" font-size="11" fill="#57606a">mostly tsgo-vs-tsc (oxlint via tsgolint, alpha).</text>
</svg>
